<?xml version="1.0" encoding="iso-8859-1"?>
<!-- Generator: Adobe Illustrator 18.1.1, SVG Export Plug-In . SVG Version: 6.00 Build 0)  -->
<svg version="1.1" id="Capa_1" xmlns="http://www.w3.org/2000/svg" xmlns:xlink="http://www.w3.org/1999/xlink" x="0px" y="0px"
	 viewBox="0 0 44.88 44.88" style="enable-background:new 0 0 44.88 44.88;" xml:space="preserve">
<g>
	<path style="fill:#030104;" d="M42.324,25.338c1.201-1.108,2.928-2.462,2.414-3.258c-14.94-23.108-31.425-9.743-36.209-5.006
		c-0.785,0.777-1.759,0.646-2.416-0.242c-1.23-1.661-3.193-3.828-4.51-5.238C0.849,10.787-0.007,11.022,0,12.126
		c0.023,3.358,1.684,7.571,2.746,9.924c0.454,1.007,0.331,2.531-0.101,3.548c-1.053,2.474-1.762,6.133-2.128,8.374
		c-0.178,1.09,0.475,1.517,1.314,0.798c1.188-1.018,2.759-2.489,3.887-3.563c0.8-0.761,1.841-0.576,2.719,0.094
		c0.56,0.427,1.226,0.861,1.83,1.231c0.942,0.577,3.147,1.39,2.647,2.315c-0.5,0.924-0.506,1.167,0.559,0.875
		s2.746-0.25,3.798,0.089c13.019,4.195,21.808-1.847,25.079-4.747c0.826-0.733,1.638-1.441,1.906-1.485
		c0.126-0.021,0.284-0.047,0.484-0.08c0.539-0.09-0.574-0.88-1.665-1.563C42.136,27.349,41.513,26.087,42.324,25.338z
		 M33.764,21.689c-1.211,0-2.193-0.982-2.193-2.193s0.982-2.193,2.193-2.193s2.193,0.982,2.193,2.193S34.975,21.689,33.764,21.689z"
		/>
	<path style="fill:#030104;" d="M20.251,8.31c-2.496,0.828-6.794,2.411-8.866,4.098c-0.857,0.697-1.373,0.736-1.917-0.164
		c-0.368-0.607-0.859-1.13-1.448-1.088c-0.001,0,8.132-2.927,12.162-3.493C21.276,7.51,21.3,7.962,20.251,8.31z"/>
</g>
<g>
</g>
<g>
</g>
<g>
</g>
<g>
</g>
<g>
</g>
<g>
</g>
<g>
</g>
<g>
</g>
<g>
</g>
<g>
</g>
<g>
</g>
<g>
</g>
<g>
</g>
<g>
</g>
<g>
</g>
</svg>
