<?xml version="1.0" encoding="iso-8859-1"?>
<!-- Generator: Adobe Illustrator 16.0.0, SVG Export Plug-In . SVG Version: 6.00 Build 0)  -->
<!DOCTYPE svg PUBLIC "-//W3C//DTD SVG 1.1//EN" "http://www.w3.org/Graphics/SVG/1.1/DTD/svg11.dtd">
<svg version="1.1" id="Capa_1" xmlns="http://www.w3.org/2000/svg" xmlns:xlink="http://www.w3.org/1999/xlink" x="0px" y="0px"
	 width="459.953px" height="459.953px" viewBox="0 0 459.953 459.953" style="enable-background:new 0 0 459.953 459.953;"
	 xml:space="preserve">
<g>
	<g>
		<path d="M312.329,258.729c0-17.858,11.371-32.751,18.28-40.154c-3.604-25.376,5.215-49.3,24.716-60.439
			c8.544-4.881,16.548-7.327,24.11-7.327c8.299,0,16.067,2.946,23.432,8.854c4.134-0.88,9.992-1.791,16.555-1.791
			c8.793,0,18.848,1.636,27.693,7.172c13.708,8.579,15.172,18.398,10.288,26.323c-2.964,4.808-9.059,9.441-15.561,9.441
			c-4.216,0-8.604-1.95-12.416-7.066c-0.778-1.044-1.545-2.049-2.308-3.031c-0.168,0.207-0.341,0.409-0.521,0.606
			c17.713,34.061,25.453,77.438-0.65,92.35c-7.245,4.141-15.233,6.1-23.43,6.1c-19.745,0-40.675-11.379-55.233-31.051
			c-0.451,0.061-0.918,0.098-1.393,0.121c5.743,15.083-7.565,22.59-16.802,22.59C319.834,281.427,312.329,274.992,312.329,258.729z"
			/>
		<path d="M39.413,152.918c0.622-3.58,1.782-7.113,3.507-10.507c6.008-11.822,17.844-20.561,32.473-23.974l7.206-1.682l0.87-7.348
			c1.486-12.568,9.428-23.808,21.787-30.839c8.182-4.655,17.672-7.116,27.446-7.116c5.397,0,10.736,0.745,15.867,2.211l6.25,1.789
			l4.405-4.78c9.493-10.302,23.718-16.21,39.027-16.21c13.87,0,26.744,4.778,36.251,13.454l4.197,3.83l5.507-1.4
			c4.634-1.177,9.424-1.773,14.238-1.773c8.834,0,17.551,2.045,25.207,5.919c12.818,6.482,21.458,17.389,23.704,29.922l1.286,7.183
			l7.176,1.327c14.862,2.748,27.25,10.966,33.986,22.546c0.898,1.546,1.67,3.128,2.33,4.735c-1.802,0.869-3.61,1.813-5.423,2.847
			c-12.876,7.356-22.748,18.957-28.549,33.547c-4.403,11.08-6.29,23.492-5.559,36.299c-8.155,10.304-17.642,26.457-17.642,45.832
			c0,11.838,3.005,21.447,8.933,28.563c5.498,6.601,13.193,10.552,21.916,11.345c-5.946,4.826-13.14,8.271-20.997,10.103v81.749
			c0,8.285-6.715,15-15,15c-8.283,0-15-6.715-15-15v-62.969c-5.951,6.664-14.141,11.726-23.727,14.453
			c-5.097,1.45-10.373,2.188-15.682,2.188c-9.828,0-19.376-2.486-27.616-7.188l-5.533-3.158l-5.368,3.429
			c-8.567,5.47-19.125,8.481-29.728,8.481c-4.424,0-8.855-0.514-13.171-1.526c-14.585-3.423-26.394-12.187-32.396-24.044
			l-3.083-6.092l-0.847,0.041v76.387c0,8.283-6.716,15-15,15s-15-6.717-15-15v-80.135c-6.059-2.449-11.545-5.936-16.063-10.33
			c-9.649-9.389-13.895-21.827-11.649-34.129l1.416-7.76l-7.043-3.55c-12.863-6.481-21.536-17.37-23.797-29.87
			c-2.218-12.273,2.066-24.702,11.756-34.1l5.93-5.751l-4.165-7.133c-0.173-0.297-0.325-0.6-0.49-0.9
			c-12.512,14.102-25.896,39.979-39.241,23.021C-11.321,179.986,19.034,162.112,39.413,152.918z"/>
	</g>
</g>
<g>
</g>
<g>
</g>
<g>
</g>
<g>
</g>
<g>
</g>
<g>
</g>
<g>
</g>
<g>
</g>
<g>
</g>
<g>
</g>
<g>
</g>
<g>
</g>
<g>
</g>
<g>
</g>
<g>
</g>
</svg>
